# xmcd
#
# Track frame offsets:
#	150
#	4004
#	22750
#	52571
#	89730
#	117523
#	150201
#	168093
#	223124
#	257812
#	296060
#	311035
#	325979
#
# Disc length: 4579 seconds
#
# Revision: 0
# Processed by: cddbd v1.5.2PL0 Copyright (c) Steve Scherf et al.
# Submitted via: EasyCDDAExtractor 11.5.0.1
#
DISCID=a611e10d
DTITLE=Los Autenticos Principes - que siga la Fiesta...! en vivo
DYEAR=1900
DGENRE=Cuarteto
TTITLE0=Presentacion
TTITLE1=Si ella vuelve
TTITLE2=Seleccion 1 (Simbolo Sexual - No vale la Pena - Un viejo Amor)
TTITLE3=Seleccion 2 (Villa Cariño - La Banda borracha - Atrevete a mirarme de 
TTITLE3=frente - La Bruja Loca - Los Domingos)
TTITLE4=Seleccion 3 (Esta noche vida mia - El Caiman)
TTITLE5=Voy a cantarte - Tu eres Sexy
TTITLE6=Donde estara mi primavera
TTITLE7=Seleccion 8 (El Conductor - Santander de Batunga - El Camaleon - El So
TTITLE7=mbrero - Palo Bonito - El Gaucho Pachanguero)
TTITLE8=Seleccion 5 ( El Picaflor - El Turco Abdon - Que te pasa corazón)
TTITLE9=Seleccion 6
TTITLE10=Gotas de miel - Tus ojos - Adoro
TTITLE11=Porque aún te amo
TTITLE12=Llorando estoy
EXTD=
EXTT0=
EXTT1=
EXTT2=
EXTT3=
EXTT4=
EXTT5=
EXTT6=
EXTT7=
EXTT8=
EXTT9=
EXTT10=
EXTT11=
EXTT12=
PLAYORDER=
